<svg viewBox="0 0 28 28" xmlns="http://www.w3.org/2000/svg"><g fill="#FFF" fill-rule="evenodd"><path d="M13.563 14.126c2.578 0 4.668-2.04 4.668-4.555 0-2.515-2.09-4.555-4.667-4.555-2.578 0-4.667 2.04-4.667 4.556 0 2.517 2.09 4.556 4.667 4.556zm0-6.796c1.268 0 2.297 1.003 2.297 2.24 0 1.24-1.03 2.242-2.297 2.242-1.268 0-2.296-1.003-2.296-2.24 0-1.24 1.028-2.242 2.296-2.242z"/><path d="M16.98 14.482c-1.31 1.008-3.417 1.008-3.417 1.008s-2.106 0-3.417-1.008c-.97-.746-1.7-.317-1.963.2-.46.9.06 1.336 1.23 2.07 1.002.627 2.376.862 3.264.95l-.74.722c-1.045 1.02-2.052 2.002-2.75 2.685a1.027 1.027 0 0 0 0 1.476l.125.123a1.09 1.09 0 0 0 1.513 0l2.75-2.685 2.75 2.684a1.09 1.09 0 0 0 1.515 0l.126-.124a1.027 1.027 0 0 0 0-1.477l-2.75-2.686-.744-.725c.888-.09 2.248-.326 3.24-.948 1.172-.734 1.69-1.17 1.23-2.07-.262-.517-.992-.946-1.962-.2z"/></g></svg>
